<?xml version="1.0" encoding="utf-8"?>
<!-- Generator: Adobe Illustrator 25.2.3, SVG Export Plug-In . SVG Version: 6.00 Build 0)  -->
<svg version="1.1" id="Layer_2" xmlns="http://www.w3.org/2000/svg" xmlns:xlink="http://www.w3.org/1999/xlink" x="0px" y="0px"
	 viewBox="0 0 84 24" style="enable-background:new 0 0 84 24;" xml:space="preserve">
<style type="text/css">
	.st0{fill:#FFFFFF;}
</style>
<g>
	<path d="M84,24c-8.5,0-16.8,0-25.3,0c0-8,0-15.8,0-23.8c8.4,0,16.8,0,25.3,0C84,8.1,84,16,84,24z M78.9,16.1
		c-0.7,0.3-1.2,0.6-1.8,0.9c-1.8,0.9-3.7,1.3-5.7,1.1c-4.9-0.4-7.5-5.6-4.7-9.5c1.8-2.6,4.6-3,7.5-2.5c1.6,0.3,3.1,1,4.7,1.5
		c0-0.4-0.1-0.8,0-1.2c0.3-1.5-0.4-2.3-1.8-2.4c-2.2-0.3-4.5-0.7-6.7-0.6c-4,0.2-7.1,3.3-7.9,7.3c-0.7,3.4,1.2,7.3,4.4,9
		c2.9,1.5,6,1.7,9.1,0.8C79.2,19.6,79.2,19.5,78.9,16.1z"/>
	<path d="M29.4,0.1c8.4,0,16.7,0,25.2,0c0,7.9,0,15.8,0,23.9c-8.3,0-16.7,0-25.2,0C29.4,16,29.4,8.1,29.4,0.1z M36,20.7
		c2.5,0,4.9,0.1,7.2,0c1.1-0.1,2.2-0.4,3.1-0.9c1.5-0.7,2.3-2.1,2.3-3.9c0-1.8-0.8-3-2.3-3.9c-0.3-0.2-0.7-0.4-1.1-0.6
		c3.5-2.9,1.7-7.1-1.5-7.7c-2.5-0.5-5.1-0.4-7.7-0.5C36,9.2,36,14.9,36,20.7z"/>
	<path d="M0,0.1c8.5,0,16.8,0,25.2,0c0,8,0,15.9,0,23.9C16.8,24,8.5,24,0,24C0,16,0,8.1,0,0.1z M6.7,20.7c2.6,0,5.1,0.2,7.6,0
		c3.4-0.3,5.3-2.3,5-5.2c-0.2-2.1-1.6-3.2-3.5-3.9c1.7-1.3,2.4-2.8,1.8-4.8c-0.7-2.1-2.4-3-4.4-3.2c-2.1-0.2-4.3,0-6.5,0
		C6.7,9.2,6.7,14.8,6.7,20.7z"/>
	<path class="st0" d="M78.9,16.1c0.3,3.4,0.2,3.5-2.9,4.3c-3.1,0.9-6.2,0.7-9.1-0.8c-3.3-1.7-5.1-5.6-4.4-9c0.8-4,3.9-7,7.9-7.3
		c2.2-0.1,4.4,0.3,6.7,0.6c1.4,0.2,2.1,0.9,1.8,2.4c-0.1,0.4,0,0.8,0,1.2c-1.6-0.5-3.1-1.2-4.7-1.5c-2.9-0.6-5.6-0.1-7.5,2.5
		c-2.8,3.9-0.2,9.1,4.7,9.5c2,0.2,3.9-0.2,5.7-1.1C77.7,16.7,78.3,16.5,78.9,16.1z"/>
	<path class="st0" d="M36,20.7c0-5.8,0-11.5,0-17.5c2.6,0.2,5.2,0,7.7,0.5c3.3,0.6,5,4.8,1.5,7.7c0.4,0.2,0.8,0.4,1.1,0.6
		c1.5,0.9,2.3,2.1,2.3,3.9c0,1.8-0.8,3.1-2.3,3.9c-1,0.5-2.1,0.8-3.1,0.9C40.9,20.8,38.5,20.7,36,20.7z M39.1,18.1
		c1.7-0.1,3.1-0.1,4.6-0.4c1.1-0.2,1.8-1,1.7-2.3c-0.1-1.2-0.8-1.9-1.9-2c-1.4-0.2-2.9-0.2-4.4-0.3C39.1,14.9,39.1,16.4,39.1,18.1z
		 M39.1,10.7c1.3-0.2,2.6-0.2,3.6-0.7c0.6-0.3,1.2-1.5,1.2-2.2c-0.1-0.6-1-1.4-1.7-1.6c-0.9-0.3-2-0.1-3.1-0.1
		C39.1,7.7,39.1,9,39.1,10.7z"/>
	<path class="st0" d="M6.7,20.7c0-5.8,0-11.5,0-17.2c2.2,0,4.4-0.1,6.5,0c2,0.2,3.7,1,4.4,3.2c0.7,2-0.1,3.5-1.8,4.8
		c1.9,0.8,3.3,1.8,3.5,3.9c0.3,2.9-1.6,5-5,5.2C11.7,20.8,9.3,20.7,6.7,20.7z M9.8,13.2c0,1.7,0,3.2,0,4.9c1.6-0.1,3.1-0.1,4.5-0.3
		c1.2-0.2,1.9-1,1.8-2.2c0-1.3-0.8-2-2-2.1C12.7,13.3,11.3,13.3,9.8,13.2z M9.8,10.7c1.3-0.2,2.5-0.2,3.5-0.6
		c0.6-0.3,1.3-1.5,1.2-2.1c-0.1-0.7-1-1.5-1.7-1.7c-0.9-0.3-1.9-0.1-3-0.1C9.8,7.6,9.8,9,9.8,10.7z"/>
	<path d="M39.1,18.1c0-1.8,0-3.2,0-4.9c1.5,0.1,3,0.1,4.4,0.3c1.1,0.1,1.8,0.8,1.9,2c0.1,1.3-0.6,2.1-1.7,2.3
		C42.3,18,40.8,18,39.1,18.1z"/>
	<path d="M39.1,10.7c0-1.7,0-3.1,0-4.5c1.1,0,2.1-0.2,3.1,0.1c0.7,0.2,1.6,1,1.7,1.6c0.1,0.7-0.5,1.8-1.2,2.2
		C41.7,10.6,40.4,10.5,39.1,10.7z"/>
	<path d="M9.8,13.2c1.5,0.1,2.9,0.1,4.3,0.2c1.2,0.1,1.9,0.8,2,2.1c0,1.3-0.7,2.1-1.8,2.2c-1.4,0.2-2.9,0.2-4.5,0.3
		C9.8,16.4,9.8,14.9,9.8,13.2z"/>
	<path d="M9.8,10.7c0-1.8,0-3.1,0-4.5c1.1,0,2.1-0.2,3,0.1c0.7,0.2,1.6,1,1.7,1.7c0.1,0.7-0.6,1.8-1.2,2.1
		C12.3,10.6,11,10.5,9.8,10.7z"/>
</g>
</svg>
